<svg xmlns="http://www.w3.org/2000/svg" viewBox="0 0 277.86 428.35"><defs><style>.cls-1{fill:none;}.cls-2{fill:#fff;}</style></defs><g id="Layer_2" data-name="Layer 2"><g id="Layer_1-2" data-name="Layer 1"><path class="cls-1" d="M156.3,82.58a14,14,0,0,1-4.81-10.64v-17a13.83,13.83,0,0,0-4.06-9.79L141,38.65a2.84,2.84,0,0,0-4,0l-6.5,6.49a13.83,13.83,0,0,0-4.06,9.8v17a14,14,0,0,1-4.81,10.61,11.2,11.2,0,0,0-4,8.39v9A28.82,28.82,0,0,0,126,120.25l12.95,13h0l12.95-13a28.82,28.82,0,0,0,8.43-20.36v-9A11.19,11.19,0,0,0,156.3,82.58Z"/><path class="cls-2" d="M116,295.17c1.4.91,6.25,3.85,6.25,6.05,0-10.81.46-24.19-7.58-32.57-.21-.22,2.6-3.81,2.92-4.23a24.52,24.52,0,0,1,1.64-1.88c2.42-2.54,5.2-4.72,7-7.84a14.91,14.91,0,0,0,1.73-6,15.07,15.07,0,0,0-4.34-11.7l-8.19-8.19a23.55,23.55,0,0,1-6.9-16.66V193.29A26.54,26.54,0,0,0,85,166.92a2.71,2.71,0,0,0-3,2.71v43.84a46.76,46.76,0,0,0,13.71,33.09h0a.26.26,0,0,1,0,.35L84.09,260.5c-.91,1.06-5.54-.15-6.79-.23a51.56,51.56,0,0,0-16.3.91c-7.42,1.82-12.93,7.72-16,14.5a38.36,38.36,0,0,0-2.89,10.81c-.3,2.25-.56,4.51-.68,6.78-.06,1,.53,6.62,0,7.11,1.73-1.49,5-7.19,13-9.82a2.21,2.21,0,0,1,2.93,2A100.45,100.45,0,0,0,59,305c2.25,8.23,7.28,15.07,13.59,20.68.83-4.49,2.52-18,9.4-26.12,3.64-4.3,7.49-8.4,13.18-9.84C102.68,287.78,109.83,291.23,116,295.17Z"/><path class="cls-2" d="M66.68,230.59v-78A26.54,26.54,0,0,0,40.14,126V257.13A26.54,26.54,0,0,0,66.68,230.59Z"/><path class="cls-2" d="M235.83,293.27c-.11-2.27-.38-4.53-.68-6.78a38.35,38.35,0,0,0-2.88-10.81c-3.07-6.78-8.59-12.68-16-14.5a51.62,51.62,0,0,0-16.31-.91c-1.25.08-5.87,1.29-6.78.23,0,0-8.13-9.49-11.63-13.59a.26.26,0,0,1,0-.35,46.79,46.79,0,0,0,13.7-33.09V169.63a2.71,2.71,0,0,0-3-2.71,26.54,26.54,0,0,0-23.56,26.37V212.1a23.55,23.55,0,0,1-6.9,16.66L153.65,237A15.15,15.15,0,0,0,151,254.7c1.76,3.12,4.55,5.3,7,7.84a22.52,22.52,0,0,1,1.64,1.88c.33.42,3.14,4,2.92,4.23-8,8.38-7.58,21.76-7.58,32.57,0-2.2,4.85-5.14,6.25-6.05,6.2-3.94,13.35-7.39,20.88-5.48,5.68,1.44,9.53,5.54,13.17,9.84,6.88,8.15,8.57,21.63,9.4,26.12C211,320,216,313.2,218.28,305a102.93,102.93,0,0,0,1.65-12.42,2.22,2.22,0,0,1,2.94-2c8,2.63,11.25,8.33,13,9.82C235.3,299.89,235.89,294.24,235.83,293.27Z"/><path class="cls-2" d="M185.34,344.12l-6.92-39.26A26.53,26.53,0,0,0,156.48,331a28.26,28.26,0,0,0,.4,4.65l5.1,28.94a4.88,4.88,0,0,1-1.34,4.27l-22,22-22-22a4.86,4.86,0,0,1-1.35-4.27l5.1-28.94a28.26,28.26,0,0,0,.4-4.65,26.53,26.53,0,0,0-21.94-26.1l-6.92,39.26-5.19,29.42a4.87,4.87,0,0,0,1.35,4.27l21.13,21.11,29.42,29.43.29-.31,50.24-50.23a4.83,4.83,0,0,0,1.34-4.27Z"/><path class="cls-2" d="M210.58,152.56v78a26.54,26.54,0,0,0,26.54,26.54h0V126h0A26.55,26.55,0,0,0,210.58,152.56Z"/><path class="cls-2" d="M270.54,94.44a54.49,54.49,0,0,0-8.61-11c-4.05-4-7.92-8.13-12-12.12-1.65-1.61-3.26-3.35-5-4.85a30.24,30.24,0,0,0-2.47-1.82c-.6-.42-2-1.61-2.73-1.61a32.13,32.13,0,0,0-14.19-3.26,4,4,0,0,0-3.74,2.75,23.24,23.24,0,0,1-5.31,8.81,25.46,25.46,0,0,1-2.16,2,23.32,23.32,0,0,1-25.25,2.7,6.17,6.17,0,0,1-.72-.38c-.23-.12-.47-.25-.7-.4l-.3-.17a2.9,2.9,0,0,1-.36-.25,13,13,0,0,1-1.18-.81c-.55-.4-1.1-.84-1.61-1.29A15.43,15.43,0,0,1,179,61.12V44.89a13.79,13.79,0,0,0-4.08-9.8c-1.44-1.43-26.76-26.43-34-34.2a2.84,2.84,0,0,0-4.11,0c-11.14,11.54-22.47,22.88-33.81,34.21a13.87,13.87,0,0,0-4.06,9.81V61.12a15.46,15.46,0,0,1-5.23,11.64c-.51.45-1.06.89-1.61,1.29a13,13,0,0,1-1.18.81,2.9,2.9,0,0,1-.36.25l-.3.17c-.23.15-.47.28-.7.4a7.09,7.09,0,0,1-.72.38,23.32,23.32,0,0,1-25.25-2.7,27.21,27.21,0,0,1-2.17-2,23.34,23.34,0,0,1-5.3-8.81,4,4,0,0,0-3.74-2.75,32.18,32.18,0,0,0-14.2,3.26c-.75,0-2.12,1.19-2.75,1.61-.83.57-1.68,1.18-2.44,1.82-1.78,1.5-3.38,3.24-5,4.85-4.06,4-7.93,8.14-12,12.12A52.85,52.85,0,0,0,0,121.31V328.25a26.55,26.55,0,0,0,26.54-26.54V129.12a45.4,45.4,0,0,1,13.27-32l1.82-1.82a4.49,4.49,0,0,1,5.9-.38,49.74,49.74,0,0,0,37.8,9.31,4.47,4.47,0,0,1,5.17,4.42v1.76a28.87,28.87,0,0,0,8.44,20.4s40,40,40,40l35.17-35.17,4.81-4.83a28.88,28.88,0,0,0,8.46-20.38v-1.76a4.47,4.47,0,0,1,5.17-4.42,49.74,49.74,0,0,0,37.8-9.31,4.49,4.49,0,0,1,5.9.38l1.82,1.82a45.36,45.36,0,0,1,13.27,32V301.71a26.54,26.54,0,0,0,26.54,26.54V121.31A53.29,53.29,0,0,0,270.54,94.44ZM160.32,99.89a28.82,28.82,0,0,1-8.43,20.36l-12.95,13h0l-12.95-13a28.82,28.82,0,0,1-8.43-20.36v-9a11.2,11.2,0,0,1,4-8.39,14,14,0,0,0,4.81-10.61v-17a13.83,13.83,0,0,1,4.06-9.8l6.5-6.49a2.84,2.84,0,0,1,4,0l6.48,6.49a13.83,13.83,0,0,1,4.06,9.79v17a14,14,0,0,0,4.81,10.64,11.19,11.19,0,0,1,4,8.36Z"/></g></g></svg>