<svg xmlns="http://www.w3.org/2000/svg" viewBox="0 0 277.86 446.05"><g id="Layer_2" data-name="Layer 2"><g id="Layer_1-2" data-name="Layer 1"><path d="M118.68,312.88c1.4.91,6.26,3.84,6.26,6,0-10.8.45-24.19-7.59-32.57-.21-.22,2.6-3.8,2.92-4.22.52-.66,1.07-1.29,1.64-1.89,2.42-2.53,5.21-4.71,7-7.84a15.13,15.13,0,0,0-2.61-17.74l-8.19-8.19a23.6,23.6,0,0,1-6.9-16.66V211a26.52,26.52,0,0,0-23.55-26.37,2.71,2.71,0,0,0-3,2.7v43.85a46.79,46.79,0,0,0,13.71,33.09h0a.24.24,0,0,1,0,.34c-3.5,4.11-11.6,13.57-11.62,13.59-.91,1.06-5.54-.15-6.79-.22a51.58,51.58,0,0,0-16.3.91c-7.41,1.82-12.93,7.71-16,14.5a38,38,0,0,0-2.88,10.8c-.31,2.26-.57,4.52-.69,6.79,0,1,.53,6.62,0,7.11,1.73-1.5,5-7.19,13-9.83a2.23,2.23,0,0,1,2.94,2,100.91,100.91,0,0,0,1.65,12.42c2.25,8.22,7.28,15.07,13.59,20.68.84-4.49,2.52-18,9.4-26.12,3.64-4.31,7.49-8.4,13.18-9.84C105.34,305.48,112.48,308.93,118.68,312.88Z"/><path d="M69.33,248.29v-78a26.54,26.54,0,0,0-26.54-26.54v131.1A26.54,26.54,0,0,0,69.33,248.29Z"/><path d="M238.48,311c-.11-2.27-.37-4.53-.68-6.79a38.37,38.37,0,0,0-2.88-10.8c-3.07-6.79-8.59-12.68-16-14.5a51.58,51.58,0,0,0-16.3-.91c-1.25.07-5.88,1.28-6.79.22,0,0-8.12-9.48-11.62-13.59a.24.24,0,0,1,0-.34,46.82,46.82,0,0,0,13.7-33.09V187.33a2.71,2.71,0,0,0-3-2.7A26.54,26.54,0,0,0,171.39,211v18.81a23.55,23.55,0,0,1-6.9,16.66l-8.19,8.19A15.05,15.05,0,0,0,152,266.35a14.75,14.75,0,0,0,1.73,6c1.75,3.13,4.54,5.31,7,7.84a22.66,22.66,0,0,1,1.64,1.89c.33.42,3.14,4,2.92,4.22-8,8.38-7.58,21.77-7.58,32.57,0-2.2,4.85-5.13,6.26-6,6.2-3.95,13.34-7.4,20.87-5.48,5.69,1.44,9.53,5.53,13.17,9.84,6.89,8.15,8.57,21.63,9.41,26.12,6.31-5.61,11.33-12.46,13.59-20.68a102.93,102.93,0,0,0,1.65-12.42,2.23,2.23,0,0,1,2.94-2c8,2.64,11.25,8.33,13,9.83C238,317.6,238.54,312,238.48,311Z"/><path d="M188,361.82l-6.92-39.26a26.53,26.53,0,0,0-21.93,26.11,28.12,28.12,0,0,0,.39,4.64l5.1,28.95a4.86,4.86,0,0,1-1.34,4.27l-22,22-22-22a4.9,4.9,0,0,1-1.35-4.27l5.1-28.95a27.1,27.1,0,0,0,.4-4.64,26.53,26.53,0,0,0-21.93-26.11l-6.92,39.26-5.2,29.43a4.88,4.88,0,0,0,1.35,4.26l21.14,21.12,29.42,29.42.28-.3,50.24-50.24a4.79,4.79,0,0,0,1.34-4.26Z"/><path d="M213.24,170.27v78a26.54,26.54,0,0,0,26.54,26.54h0V143.73h0A26.54,26.54,0,0,0,213.24,170.27Z"/><path d="M270.54,94.45a54.58,54.58,0,0,0-8.6-11c-4.06-4-7.93-8.13-12-12.11-1.65-1.62-3.27-3.36-5-4.86-.76-.64-1.63-1.25-2.46-1.82-.61-.41-2-1.61-2.73-1.61a32.31,32.31,0,0,0-14.2-3.26,4,4,0,0,0-3.74,2.75,23.25,23.25,0,0,1-5.3,8.82,29.24,29.24,0,0,1-2.17,2,23.34,23.34,0,0,1-25.25,2.69,7.09,7.09,0,0,1-.72-.38c-.22-.12-.47-.25-.7-.4l-.3-.17a2.9,2.9,0,0,1-.36-.25,11.24,11.24,0,0,1-1.18-.81c-.55-.4-1.1-.84-1.61-1.29A15.45,15.45,0,0,1,179,61.12V44.89a13.79,13.79,0,0,0-4.08-9.8c-1.43-1.42-26.76-26.43-34-34.2a2.85,2.85,0,0,0-4.11,0C125.61,12.41,114.28,23.75,103,35.09a13.86,13.86,0,0,0-4.07,9.8V61.12a15.41,15.41,0,0,1-5.23,11.64c-.51.45-1.06.89-1.61,1.29a12.28,12.28,0,0,1-1.17.81c-.12.1-.25.17-.36.25l-.31.17c-.23.15-.47.28-.7.4a6.17,6.17,0,0,1-.72.38,23.34,23.34,0,0,1-25.25-2.69,27.22,27.22,0,0,1-2.16-2,23.28,23.28,0,0,1-5.31-8.82,4,4,0,0,0-3.73-2.75,32.28,32.28,0,0,0-14.2,3.26c-.76,0-2.13,1.2-2.75,1.61a29.9,29.9,0,0,0-2.45,1.82c-1.78,1.5-3.37,3.24-5,4.86-4.06,4-7.93,8.13-12,12.11A52.85,52.85,0,0,0,0,121.31V328.25a26.54,26.54,0,0,0,26.54-26.54V129.12a45,45,0,0,1,2.39-14.5A45.59,45.59,0,0,1,39.81,97.08l1.82-1.82a4.5,4.5,0,0,1,5.9-.38,49.3,49.3,0,0,0,29.82,10,47.83,47.83,0,0,0,8-.64,4.48,4.48,0,0,1,5.18,4.42v1.76a28.84,28.84,0,0,0,8.43,20.4s40,40,40,40l35.17-35.17,4.81-4.83a28.82,28.82,0,0,0,8.46-20.38v-1.76a4.47,4.47,0,0,1,5.17-4.42,47.83,47.83,0,0,0,8,.64,49.3,49.3,0,0,0,29.82-10,4.49,4.49,0,0,1,5.9.38l1.82,1.82a45.47,45.47,0,0,1,10.88,17.54,44.76,44.76,0,0,1,2.39,14.5V301.71a26.55,26.55,0,0,0,26.54,26.54V121.31A53.25,53.25,0,0,0,270.54,94.45ZM155,99.89a31,31,0,0,1-7.39,20.36l-11.34,13h0l-11.34-13a31,31,0,0,1-7.39-20.36v-9a11.85,11.85,0,0,1,3.52-8.38,14.94,14.94,0,0,0,4.22-10.62v-17a14.94,14.94,0,0,1,3.55-9.8l5.7-6.49a2.28,2.28,0,0,1,3.52,0l5.68,6.49a14.93,14.93,0,0,1,3.55,9.79v17a14.87,14.87,0,0,0,4.22,10.64A11.88,11.88,0,0,1,155,90.94Z"/></g></g></svg>