<svg xmlns="http://www.w3.org/2000/svg" viewBox="0 0 561.84 211.84"><defs><style>.cls-1{fill:#fff;}</style></defs><g id="Layer_2" data-name="Layer 2"><g id="Layer_1-2" data-name="Layer 1"><path class="cls-1" d="M53.76,0c34.08,0,50.88,14.4,50.88,43.2V81.6l4.08,38.4-1.92,1.68H84l-5.76-21.12H76.32C67,117.12,52.8,123.36,37.2,123.36c-26.64,0-37.2-18-37.2-37C0,58.08,21.84,49,44.16,49H76.08V43.44c0-17.28-9.36-26.88-28.32-26.88-13,0-25.92,4.08-37.2,10.32H7.92V7.44A146.73,146.73,0,0,1,53.76,0ZM73.92,61.2l-7,1.2H50.16c-13.68,0-21.6,7.2-21.6,22.08,0,12.24,6,22.32,20.64,22.32,15.84,0,26.88-14.4,26.88-36.72V61.2Z"/><path class="cls-1" d="M166.56,121.68C148.8,92.16,130.32,43,125.28,3.84l1.92-2.16h28.56c3.6,35.52,15.12,76.8,26.16,102.48h1.44c11-25.68,22.56-67.2,25.92-102.48H236.4l2.16,2.16C233.28,43,214.8,92.16,196.32,121.68Z"/><path class="cls-1" d="M289.44,1.68v120H260.88V1.68Z"/><path class="cls-1" d="M369.6,0c34.08,0,50.88,14.4,50.88,43.2V81.6l4.08,38.4-1.92,1.68h-22.8l-5.76-21.12h-1.92c-9.36,16.56-23.52,22.8-39.12,22.8-26.64,0-37.2-18-37.2-37C315.84,58.08,337.68,49,360,49h31.92V43.44c0-17.28-9.36-26.88-28.32-26.88-13,0-25.92,4.08-37.2,10.32h-2.64V7.44A146.73,146.73,0,0,1,369.6,0Zm20.16,61.2-7,1.2H366c-13.68,0-21.6,7.2-21.6,22.08,0,12.24,6,22.32,20.64,22.32,15.84,0,26.88-14.4,26.88-36.72V61.2Z"/><path class="cls-1" d="M472.32,1.68l6,21.12h1.92C489.12,6.24,505.44,0,521.76,0c25.68,0,40.08,15.6,40.08,41.76v79.92H533.28V46.56c0-22.8-10.56-30-23-30-17.28,0-30,14.4-30,37.2v67.92H451.68V41.76L447.84,3.6l1.68-1.92Z"/><path class="cls-1" d="M44.22,211.12,10.68,172v39.17H8.52v-42H11l33.6,39.29V169.13h2.16v42Z"/><path class="cls-1" d="M93.3,211.12v-42h33.12V171h-31v17.57H123.9v1.86H95.46v18.84h31v1.86Z"/><path class="cls-1" d="M186.06,211.12V171H167.82v-1.86h38.64V171H188.22v40.13Z"/><path class="cls-1" d="M290.58,211.12l-13.26-39.29-13.26,39.29h-3.12l-14.58-42h2.28l13.74,40.13h.12L276,169.13h2.58l13.5,40.13h.12l13.74-40.13h2.28l-14.58,42Z"/><path class="cls-1" d="M348.66,190.12c0-14.15,9.6-21.71,23-21.71s23,7.56,23,21.71-9.6,21.72-23,21.72S348.66,204.28,348.66,190.12Zm43.8,0c0-13.67-9.6-19.85-20.76-19.85s-20.76,6.18-20.76,19.85S360.54,210,371.7,210,392.46,203.8,392.46,190.12Z"/><path class="cls-1" d="M472.2,211.12l-2.52-8.52c-1.8-5.93-5.88-9.23-11.1-10.14a22.28,22.28,0,0,0-3.78-.24h-13v18.9h-2.16v-42h19.92c7.2,0,13.74,2.7,13.74,11.28,0,5.46-3.54,10.5-10.74,11.39,5.94,2,8.34,7.14,9.42,10.74l2.58,8.58Zm-13.32-20.7c9,0,12.12-5.09,12.12-10,0-4.32-2.46-9.42-11.34-9.42H441.78v19.43Z"/><path class="cls-1" d="M550.74,211.12l-14.82-26L520.5,201v10.14h-2.16v-42h2.16v29l28.38-29h2.88L537.6,183.71l15.72,27.41Z"/></g></g></svg>